<svg xmlns="http://www.w3.org/2000/svg" viewBox="0 0 180 180">
  <defs>
    <linearGradient id="bgGold" x1="0%" y1="0%" x2="0%" y2="100%">
      <stop offset="0%" stop-color="#dca84e"/>
      <stop offset="100%" stop-color="#b48026"/>
    </linearGradient>
  </defs>

  <rect width="180" height="180" rx="40" fill="url(#bgGold)"/>
  <rect x="11" y="11" width="158" height="158" rx="34" fill="none" stroke="rgba(255,255,255,0.15)" stroke-width="2"/>

  <!-- Karate figure -->
  <g fill="white" transform="translate(90, 105)">
    <circle cx="-5.5" cy="-52" r="12"/>
    <path d="M -8 -40 L -25 -5 L -21 28 L 0 33 L 21 28 L 25 -5 L 8 -40 Z"/>
    <rect x="-27.5" y="-8" width="55" height="7" rx="1.5" fill="#282828"/>
    <path d="M 16.5 -16.5 L 49 -25 L 52 -12 L 22 -5.5 Z"/>
    <path d="M -22 -14 L -38 3 L -33 12 L -16.5 3 Z"/>
    <path d="M -8 30 L -14 60 L -4 65 L 3 36 Z"/>
    <path d="M 5.5 22 L 41 27 L 48.5 38 L 11 38 Z"/>
  </g>
</svg>
